<svg xmlns="http://www.w3.org/2000/svg" viewBox="0 0 129.95 129.96"><defs><style>.cls-1{fill:#d5b063;}</style></defs><title>icono-2</title><g id="Capa_2" data-name="Capa 2"><g id="Capa_1-2" data-name="Capa 1"><path class="cls-1" d="M63,0h3.3c3.54.67,6.14,2.81,8.48,5.39.91,1,2,1.88,2.85,2.88a3.57,3.57,0,0,0,4,1.07c2.26-.67,4.55-1.27,6.84-1.86a11.25,11.25,0,0,1,14.07,8.11c.6,2.16,1.23,4.31,1.72,6.49a3.74,3.74,0,0,0,3.11,3.06c2.5.6,5,1.25,7.45,2a11.07,11.07,0,0,1,7.59,12.71c-.35,1.82-.86,3.62-1.36,5.4-1.34,4.86-1.48,4.35,2.12,7.9,2.88,2.84,6,5.5,6.82,9.78v3.3c-.68,3.53-2.8,6.14-5.38,8.48-1,.94-1.95,2-3,3a3.4,3.4,0,0,0-1,3.78c.67,2.31,1.28,4.64,1.88,7a11.25,11.25,0,0,1-8.11,14.07c-2.15.6-4.3,1.24-6.48,1.72a3.73,3.73,0,0,0-3.06,3.11c-.62,2.54-1.26,5.08-2.06,7.57a11.09,11.09,0,0,1-12.68,7.47c-1.82-.35-3.61-.86-5.4-1.36-4.85-1.33-4.34-1.49-7.9,2.13-2.84,2.87-5.49,6-9.77,6.82h-3.3c-3.49-.68-6.08-2.75-8.39-5.31-.94-1-2-1.94-3-3a3.54,3.54,0,0,0-4-1.06c-2.27.67-4.55,1.26-6.84,1.85a11.25,11.25,0,0,1-14.07-8.11c-.61-2.15-1.24-4.3-1.72-6.48a3.73,3.73,0,0,0-3.12-3.06c-2.54-.61-5.08-1.26-7.57-2.06A11.09,11.09,0,0,1,7.58,90.08c.33-1.69.85-3.35,1.28-5,1.35-5.31,1.81-4.48-2.31-8.54C3.76,73.76.78,71.15,0,67v-3.3c.67-3.54,2.82-6.15,5.39-8.49,1-.91,1.89-1.94,2.88-2.85a3.57,3.57,0,0,0,1.07-4c-.67-2.22-1.23-4.47-1.82-6.72a11.23,11.23,0,0,1,8.2-14.21c2.15-.59,4.3-1.21,6.48-1.72a3.63,3.63,0,0,0,2.9-3c.65-2.57,1.29-5.16,2.09-7.69A11.06,11.06,0,0,1,39.87,7.59c2.68.55,5.32,1.33,8,2.06a3.29,3.29,0,0,0,3.47-.94c1-1.06,2.13-2.06,3.12-3.15C56.79,3,59.38.75,63,0m38.61,65A36.59,36.59,0,1,1,65,28.39,36.57,36.57,0,0,1,101.56,65ZM65,36.51A28.47,28.47,0,1,0,93.44,64.88,28.44,28.44,0,0,0,65,36.51Zm-7,33.93L70.85,59.22c3.21-2.82,6.39-5.67,9.64-8.44A4.06,4.06,0,1,1,85.68,57l-19,16.64c-2,1.76-4,3.53-6,5.27-2.25,1.94-4.49,1.79-6.43-.44q-5.21-6-10.36-12c-1.72-2-1.64-4.43.13-6s4.3-1.29,6,.72ZM38.24,15.49A3.26,3.26,0,0,0,34.77,18c-.68,2.4-1.31,4.81-2,7.22a11.1,11.1,0,0,1-8.4,8.28c-2.16.57-4.33,1.15-6.48,1.75-2.33.64-3.14,2.06-2.53,4.4s1.26,4.73,1.88,7.1a11,11,0,0,1-3,11.07c-1.59,1.64-3.23,3.23-4.84,4.85-1.79,1.81-1.78,3.44,0,5.27s3.55,3.5,5.28,5.31a10.31,10.31,0,0,1,3,9.28c-.5,2.82-1.37,5.57-2.07,8.36-.57,2.26.23,3.69,2.47,4.32s4.72,1.29,7.09,1.93a11.1,11.1,0,0,1,8.23,8.3c.59,2.16,1.15,4.33,1.74,6.49.67,2.43,2.06,3.24,4.46,2.61s4.65-1.25,7-1.86a11.08,11.08,0,0,1,11.19,3c1.63,1.59,3.22,3.23,4.85,4.84s3.41,1.75,5.17,0,3.62-3.69,5.5-5.46a10.21,10.21,0,0,1,9.07-2.92c2.86.51,5.65,1.38,8.48,2.09,2.24.56,3.67-.26,4.3-2.51s1.27-4.64,1.9-7a11.08,11.08,0,0,1,8.36-8.32c2.2-.59,4.41-1.17,6.6-1.78s3.07-2.08,2.48-4.33c-.62-2.41-1.28-4.82-1.91-7.23a10.93,10.93,0,0,1,3-11c1.62-1.67,3.3-3.29,4.93-5s1.71-3.4,0-5.17-3.55-3.51-5.28-5.31a10.34,10.34,0,0,1-3-9.39c.51-2.82,1.37-5.57,2.07-8.36.55-2.18-.26-3.63-2.42-4.24-2.39-.68-4.8-1.31-7.21-2a11,11,0,0,1-8.11-8.1c-.64-2.23-1.2-4.49-1.82-6.73s-2.06-3.16-4.38-2.56-4.81,1.29-7.23,1.91a11,11,0,0,1-11-3c-1.66-1.62-3.28-3.3-4.94-4.93s-3.37-1.69-5.08,0-3.58,3.6-5.4,5.38a11.19,11.19,0,0,1-6.38,3.1c-2.71.41-5.17-.57-7.7-1.19C41,16.26,39.46,15.81,38.24,15.49Z"/></g></g></svg>