<svg xmlns="http://www.w3.org/2000/svg" viewBox="0 0 145.82 130.75"><defs><style>.cls-1{fill:#d5b063;fill-rule:evenodd;}</style></defs><title>icono-1</title><g id="Capa_2" data-name="Capa 2"><g id="Capa_1-2" data-name="Capa 1"><path class="cls-1" d="M114.37,32.14h16l.09-6.23-16.14,0ZM55.53,123.77l27.26.1.11-11.79H55.53Zm58.81-51.53,0,.25h1.22c5,0,7.28-.06,8.53,2.39h0c1,1.92.93,5.29.85,11.64,0,2,0,4.33,0,7.5,0,1.18,0,4,0,7.28-.07,7.78-.16,18.35,0,22.48l5.52.08.09-85.24-16.16,0ZM33.13,93.87l6.75,0,0-4.59-6.74-.06Zm26.29,0,6.5,0,0-4.63-6.5,0Zm26.05,0,6.49.08L92,89.24H85.51Zm-13,.08,6.52,0,0-4.56-6.48-.09ZM46.38,93.8l6.48.11.07-4.67-6.52,0ZM26.66,87.45c-.06-2.14-.11-3.8,2.49-4.51,1.36-.37,43.62-.23,64.07-.17l10.13,0c1.11,0,1.93,0,2.64,0,2.7-.08,4.07-.12,5,1.22.79,1.19.79,3.26.78,7.49,0,1,0,2.17,0,3.47v.4c0,2.42,0,4.3-2.56,4.9-1.41.32-48.5.19-67.15.13H34.87c-1.08,0-1.87,0-2.55,0-2.67.08-4,.12-4.9-1.23-.76-1.18-.76-3.23-.75-7.39,0-1,0-2.22,0-3.56,0-.24,0-.5,0-.75Zm51.84-15c.76,0,1.55-.06,2.37-.1,3-.15,6.31-.31,8.43.35,2,.61,3,1.81,2.3,4s-2.86,2.23-4.94,2.2h-.44c-5,0-10,0-15,0l-7.26,0c-4.43,0-9.51-.05-14.6-.1-9.78-.09-19.65-.19-29.22.09L20,123.84l29.12,0c0-1.07,0-2.57-.06-4.24-.14-5.32-.31-12.25,1.37-13.4.68-.48,8.83-.69,17.32-.7,9.44,0,19.46.22,20.14.62,1.87,1.11,1.7,6,1.53,10.95-.08,2.42-.16,4.85,0,6.74l29.09,0,0-45c-3.65-.28-8-.17-12.2-.07-2.64.07-5.22.13-7.54.1a4.41,4.41,0,0,1-3.85-1.71,2.83,2.83,0,0,1-.45-1.43h0a2.87,2.87,0,0,1,.35-1.42,3.86,3.86,0,0,1,3.29-1.88c2-.13,4.29-.09,6.52,0,1.13,0,2.25,0,3.32,0,.36-2.92-.32-3.56-2.61-5.71-.63-.58-1.36-1.27-2.24-2.14l-15-15c-.68-.68-1.23-1.25-1.7-1.73A8.93,8.93,0,0,0,84,45.81a7.54,7.54,0,0,0-2.53-.09c-.78,0-1.75.09-2.94.1Zm20,21.42h6.76l0-4.55-6.73-.1Zm-20-54.51c1.15,0,2,0,2.78,0,2.84-.07,4.21-.1,5.64.62,1.28.65,2.39,1.82,4.54,4.09,1.1,1.15,2.49,2.61,4.42,4.55h0c.5.49,1.35,1.37,2.39,2.45,2.9,3,7.34,7.56,9.67,9.66v-.43c0-1.72.08-3.53,0-5.06-.05-.93-.66-1.49-1.66-2.41-.38-.34-.8-.73-1.22-1.15l-9.84-9.85c-1.71-1.7-3.38-3.36-5.14-5.14-1.55-1.56-1.62-1.56-4.35-1.55H78.61ZM72,13.61l.1-7L42.41,6.56c0,.87,0,1.71,0,2.53,0,.45,0,.89,0,1.33,0,.67,0,1.21,0,1.67,0,1-.06,1.47.09,1.52a16,16,0,0,0,3.93.09c1.6,0,3.69-.11,6.21-.11,1.83,0,4.09,0,6.38.08C63.35,13.74,67.86,13.81,72,13.61ZM42.4,29.22v2c0,.42,0,.86,0,1.31,0,.74,0,1.57,0,2.47v5.29h0c-.11,10.86-.25,26.19,0,32.15l29.66,0L72,20l-29.58.11c0,1.37,0,2.85,0,4.26,0,.65,0,1.29,0,1.92,0,.26,0,.55,0,.84,0,.46,0,.93,0,1.39C42.43,28.78,42.42,29,42.4,29.22ZM36,13.62l0-7.07a4.63,4.63,0,0,1-2.19-.61l-.41-.28V1l.55-.25C36-.22,49.2,0,54.89.09l2.29,0,2.24,0C65.33,0,79.64-.21,81,.87a3.69,3.69,0,0,1,1,1.71,3.08,3.08,0,0,1,0,1.68,2.6,2.6,0,0,1-1.24,1.61,5,5,0,0,1-2.26.65c-.1,1.44-.06,4.42,0,6.41v.69a5.07,5.07,0,0,1,2,.44,2.72,2.72,0,0,1,1.56,2.79,2.79,2.79,0,0,1-1.49,2.68,5.29,5.29,0,0,1-2.06.48c-.13,1.46-.08,4.73,0,7.22l0,1.45,1.42,0c3.4-.06,8.26-.15,10.12.38,2.6.74,4.63,2.91,6.24,4.63.36.38.69.73,1,1,1.31,1.3,2.6,2.61,3.89,3.9,2.24,2.26,4.47,4.5,6.76,6.71V38.53a4.69,4.69,0,0,1-2-.59A2.76,2.76,0,0,1,104.7,35c.25-2.19,1.4-2.39,2.54-2.58a2.14,2.14,0,0,0,.67-.19l0-6.42A4,4,0,0,1,105,24.06a2.69,2.69,0,0,1-.41-1.44,2.89,2.89,0,0,1,.42-1.43,4.38,4.38,0,0,1,3.81-1.77l22.65,0h0c.66,0,1.3,0,1.93-.07a17.34,17.34,0,0,1,3.54,0c2.14.33,3.55,1.43,3.06,4.54l-.05.36-.65.52a3.34,3.34,0,0,1-2.36,1c0,1.17-.06,3,0,4.51,0,.73,0,1.38.07,1.85A3.91,3.91,0,0,1,139.89,34a2.81,2.81,0,0,1,.39,1.42,2.72,2.72,0,0,1-.41,1.42A3.93,3.93,0,0,1,137,38.5l.11,85.34.82,0a25.88,25.88,0,0,1,4.13,0c2.3.25,4.05,1.14,3.78,3.62a2.82,2.82,0,0,1-1.72,2.5,6.88,6.88,0,0,1-2.8.42H22.94c-.83,0-2.51.06-4.6.14-6.13.24-15.62.61-16.86-.16a2.7,2.7,0,0,1-.71-.63h0A3.54,3.54,0,0,1,0,127.77a3.29,3.29,0,0,1,.44-2,2.69,2.69,0,0,1,.57-.65l.13-.11L1.3,125a24.75,24.75,0,0,1,6.53-1c2-.11,3.95-.11,5.57-.08l0-15.11.06-6.4-.08-4.27.08-6.44c0-2.47,0-4.36-.06-6-.07-5.66-.11-8.72.75-10.55,1.15-2.44,3.38-2.49,8.22-2.6h6.74L36,72.43C36.11,68.43,36,53,36,44l0-3.64h-.15V35.26c0-.52,0-1.07-.06-1.64a17,17,0,0,1,.06-1.76V25.49H36c0-.33,0-.68,0-1,0-1.48.06-3.11,0-4.45a5.72,5.72,0,0,1-2.2-.58l-.46-.27V14.48l.47-.27a4.3,4.3,0,0,1,1.48-.49Z"/></g></g></svg>