<svg xmlns="http://www.w3.org/2000/svg" viewBox="0 0 130.57 130.57"><defs><style>.cls-1{fill:#d5b063;}</style></defs><title>icono-4</title><g id="Capa_2" data-name="Capa 2"><g id="Capa_1-2" data-name="Capa 1"><path class="cls-1" d="M122.21,43.21l0,0s0,0,0,0Zm8.15-15.43v0ZM27.1,130.57h-5l-.19-.06-.28-.1h0l-.31-.1A25.72,25.72,0,0,1,8.53,124.6,25.7,25.7,0,0,1,1,112.77a25.23,25.23,0,0,1-.71-3c-.1-.5-.2-1-.27-1.28l0-.15v-5.11l.07-.21c0-.1.07-.18.11-.26h0a.41.41,0,0,0,.05-.11,24.11,24.11,0,0,1,8.2-15.33,1,1,0,0,0-.08-.24l0-.09A62.76,62.76,0,0,1,4.25,61.25a58.32,58.32,0,0,1,7.22-24.44c5.53-10.18,12.68-18,21.34-23.37s19-8.47,30.65-9.1A52.55,52.55,0,0,1,75.24,5,60,60,0,0,1,87.06,8.34l.28.09a1.52,1.52,0,0,0,.18-.2h0a24,24,0,0,1,3.8-3.54,19.17,19.17,0,0,1,4.6-2.52,49.55,49.55,0,0,1,5-1.53c.68-.18,1.37-.36,2.17-.59l.17,0h5.17l.21.07.25.11.11.05h0a25.44,25.44,0,0,1,11.44,4.5,24.57,24.57,0,0,1,7.64,9.47h0a27.24,27.24,0,0,1,1.74,5.38c.21.81.42,1.63.64,2.37l0,.18v5.19l-.1.23c-.05.13-.08.18-.1.23h0a25,25,0,0,1-2.67,8.46,25.49,25.49,0,0,1-5.47,7h.05c0,.09,0,.16,0,.16a62.73,62.73,0,0,1,3.61,14.55,60.11,60.11,0,0,1-.07,15,61.5,61.5,0,0,1-5.22,18.27A59.4,59.4,0,0,1,110,106.72a61.15,61.15,0,0,1-30.77,18,61.72,61.72,0,0,1-35.67-2.48l-.3-.09a2.27,2.27,0,0,0-.2.21,24.27,24.27,0,0,1-5.13,4.39,23.31,23.31,0,0,1-6.09,2.73c-1,.3-2,.52-3.07.75l-1.37.31-.14,0ZM104.77,83.8A40.05,40.05,0,0,0,108.84,68a44.49,44.49,0,0,0-2.72-18.2.53.53,0,0,0-.7-.48A24.65,24.65,0,0,1,81.21,25.14a1.21,1.21,0,0,0-.06-.49.89.89,0,0,0-.41-.21h0a44.67,44.67,0,0,0-12.63-2.76,42.17,42.17,0,0,0-12.64,1.11c-2,.49-4.07,1.2-6.2,1.94l-1.12.39c2.24,1.9,4.31,3.55,7.05,3.81a11.61,11.61,0,0,1,2.1.4c.69.19,1.33.41,1.94.63a7.31,7.31,0,0,1,1.43.71h0a4.87,4.87,0,0,1,1.12,1c1.24,1.56,2.47,3.21,3.7,4.86.68.91,1.35,1.82,2.11,2.82a4.25,4.25,0,0,1,.85,1.75,4.11,4.11,0,0,1-.08,2c-.4,1.42-.75,2.93-1.1,4.42l-.23,1a14.7,14.7,0,0,0,4.18,2A5.91,5.91,0,0,0,76,49.69h0a2,2,0,0,1,.71-.27h0l.09,0a3.68,3.68,0,0,1,2.91.16A3.65,3.65,0,0,1,81.39,52c.2.76.39,1.52.58,2.28.31,1.26.62,2.52,1,3.75,0,0,.05.09.12.16l.13.11c1.25.37,2.52.69,3.8,1l2.23.57a3.65,3.65,0,0,1,2.41,1.61,3.77,3.77,0,0,1,.23,2.91l-.41,1.71C91,68,90.55,69.92,90,71.91h0a5.48,5.48,0,0,1-.78,1.52A6.94,6.94,0,0,1,88,74.75a26,26,0,0,1-2.8,2L85,76.8l.24.33c.93,1.25,1.82,2.45,2.76,3.62l.08.11L88,80.75l.18,0h0c1.18-.21,2.45-.44,3.91-.73s2.66-.53,3.88-.81a4.51,4.51,0,0,1,2,0h0a4.55,4.55,0,0,1,1.81.88c1.39,1.08,2.81,2.13,4.26,3.21ZM31.71,73.21s.06,0,0,0l0,0Zm44-16.42a24.71,24.71,0,0,1-2.66.81,6.28,6.28,0,0,1-1.58.16,3.61,3.61,0,0,1-1.46-.31c-2.11-1-4.13-2-6.15-3l-2-1a3.61,3.61,0,0,1-1.78-1.75A3.68,3.68,0,0,1,60,49.18h0c.27-1,.54-2,.79-3.08s.5-2.07.7-3.07a1.21,1.21,0,0,0,0-.5.84.84,0,0,0-.13-.38c-.65-.95-1.32-1.88-2-2.78s-1.37-1.79-2.1-2.7a1.74,1.74,0,0,0-.43-.37,2.28,2.28,0,0,0-.57-.27c-.76-.22-1.69-.44-2.63-.66s-2-.49-3.06-.8a11,11,0,0,1-1.63-.64,9,9,0,0,1-1.44-.87c-1.49-1.12-3-2.34-4.57-3.61l-1.19-1L36,32.91a14.17,14.17,0,0,1,1.76,1.36,7.4,7.4,0,0,0,3,1.77,10.22,10.22,0,0,0,3.63.33c1.85-.13,2.86-.07,3.69.6s1.09,1.61,1.53,3.34L50,41.69c.73,3,1.45,6,3.43,8.48a10.11,10.11,0,0,0,1.39,1.49h0a3.56,3.56,0,0,0,1.53.76,19.69,19.69,0,0,1,2.6.82l.82.3A3.41,3.41,0,0,1,62.2,57v5.74a3.87,3.87,0,0,1-.73,2.51,3.76,3.76,0,0,1-2.32,1.24c-1,.22-1.95.4-2.89.58-1.65.32-3.3.64-4.9,1a10,10,0,0,0-1.62.56,9.28,9.28,0,0,0-1.45.79c-1.69,1.14-3.31,2.39-4.93,3.63l-1.33,1a4.27,4.27,0,0,1-1.71.81,4,4,0,0,1-1.94-.08c-1-.29-2.05-.55-3.06-.8s-2-.48-3.1-.73a1.86,1.86,0,0,0-.51-.06h0c-.61.38-1.23.8-1.86,1.22a23,23,0,0,1-6.38,3.38c.2.61.38,1.18.52,1.75a3,3,0,0,0,.67,1.52,1.71,1.71,0,0,0,1.4.22,6.44,6.44,0,0,1,2.45.21l.91.18.45.07.43.09a14.27,14.27,0,0,1,4.39-.76,37.83,37.83,0,0,1,4.17.17,7.8,7.8,0,0,0,3.56-.39A5.85,5.85,0,0,0,45,78.73a4.23,4.23,0,0,1,1.9-1.51,5.21,5.21,0,0,1,2.28-.32,43.74,43.74,0,0,0,6.68-.09,26.44,26.44,0,0,0,6.39-1.42,6.06,6.06,0,0,1,3.51-.26,11.5,11.5,0,0,1,3,1.23A14.84,14.84,0,0,1,74,80.68,12.41,12.41,0,0,1,76.3,87.1c.12,1.41,1,2.51,2,3.69l.16.18a9.29,9.29,0,0,0,3.27,2.68,6.54,6.54,0,0,0,4,.38,3.57,3.57,0,0,1,2.19.26,5,5,0,0,1,1.61,1.21c1,1,1.95,2,2.92,3l.47.47a45.58,45.58,0,0,0,4.66-4.43,41.39,41.39,0,0,0,3.87-4.95l-.64-.49c-1.27-1-2.49-1.9-3.78-2.77h0a1.85,1.85,0,0,0-.58-.22,1.88,1.88,0,0,0-.61,0c-2.46.42-4.9.93-7.34,1.45l-.85.18a3.6,3.6,0,0,1-3.87-1.47c-1-1.41-2-2.66-2.93-3.91h0c-1-1.27-1.92-2.55-3.07-4.1a3.69,3.69,0,0,1-.85-2.82A3.63,3.63,0,0,1,78.65,73c.81-.55,1.54-1,2.28-1.52s1.64-1.09,2.37-1.6a3.3,3.3,0,0,0,.35-.28h0s0,0,0,0c.35-1.18.66-2.45,1-3.76l.07-.29-.56-.14c-1.24-.33-2.44-.64-3.62-.86a4.79,4.79,0,0,1-2.63-1.3,5,5,0,0,1-1.25-2.62c-.21-1.12-.51-2.25-.82-3.44ZM41.53,87.87a24.18,24.18,0,0,1,7.81,17.53,1,1,0,0,0,.08.5h0a1.42,1.42,0,0,0,.51.26,44.31,44.31,0,0,0,11.88,2.66,42.95,42.95,0,0,0,25.69-6,6.71,6.71,0,0,0-2-1.75,5,5,0,0,0-3.51-.44,4.17,4.17,0,0,1-.83.08,2.6,2.6,0,0,1-.84-.14l-.49-.15a6,6,0,0,1-2.24-1.07,24.43,24.43,0,0,1-1.92-1.87,21.61,21.61,0,0,0-1.89-1.83h0A11.34,11.34,0,0,1,71,92.37a9.89,9.89,0,0,1-1.2-4,7.5,7.5,0,0,0-1.33-3.85,7.68,7.68,0,0,0-3.22-2.45,2.29,2.29,0,0,0-.69-.2,1.77,1.77,0,0,0-.56,0c-.94.18-1.93.44-2.91.71a18.77,18.77,0,0,1-7.39.93,8.1,8.1,0,0,0-4,.34h0a6.66,6.66,0,0,0-3,2.43h0a3.35,3.35,0,0,1-1.42,1,7.2,7.2,0,0,1-1.86.45C42.82,87.85,42.18,87.87,41.53,87.87ZM17.77,82.2c-3-9.85-3.7-19.24-1.78-28s6.44-17,13.83-24.37S45.38,17.9,54.17,16s18.19-1.23,28,1.78l1.34-3.57a52.81,52.81,0,0,0-32-1.48A54.42,54.42,0,0,0,11.64,56.62c-1.65,10.23-.3,19.94,2.62,26.9.53-.23,1.07-.47,1.66-.69S17.14,82.4,17.77,82.2Zm95-33.83c3,9.85,3.69,19.25,1.77,28s-6.44,17-13.84,24.37-15.56,11.9-24.35,13.82-18.19,1.23-28-1.79L47,116.39a53,53,0,0,0,29.8,2A54.42,54.42,0,0,0,118.5,76.24,52.39,52.39,0,0,0,116.36,47c-.57.25-1.15.49-1.73.71S113.42,48.17,112.8,48.37ZM31.37,37.83A43.59,43.59,0,0,0,22,71.21c.84-.39,1.62-.75,2.31-1.16s1.38-.89,2.08-1.37,1.68-1.15,2.64-1.7h0a4.71,4.71,0,0,1,1.52-.52,5.18,5.18,0,0,1,1.62,0c.91.16,1.83.34,2.76.57a27.76,27.76,0,0,1,2.72.78,2.09,2.09,0,0,0,1.2.12A3.19,3.19,0,0,0,40,67.28l.75-.6c3.47-2.78,7-5.56,12-5.71a9.25,9.25,0,0,0,1.91-.36l.44-.12.42-.07a6.79,6.79,0,0,1,0-.78c0-.27,0-.55-.17-.58a10.54,10.54,0,0,1-4.83-2,11,11,0,0,1-3.21-4.11,4,4,0,0,0-.32-.47,4.87,4.87,0,0,1-.55-.86l-.4-.82a33.34,33.34,0,0,1-1.52-3.52h0c-.41-1.2-.68-2.38-1-3.59L43.43,43h-.12a18.22,18.22,0,0,0-2.09,0,6.33,6.33,0,0,1-2.55-.28,7.5,7.5,0,0,1-2.21-1.21c-1.36-1-2.74-2-4.16-3Zm11.36,68a18.12,18.12,0,0,0-5.31-12.74,17.78,17.78,0,0,0-12.67-5.28h0A18,18,0,0,0,6.66,106h0v0h0A17.78,17.78,0,0,0,12,118.65a18.11,18.11,0,0,0,12.78,5.26h.05a18.1,18.1,0,0,0,17.91-18h0v-.06Zm-16.62,5.58v-3.33c1.57.45,2,.91,2,1.72v.06C28.13,110.77,27.5,111.29,26.11,111.44Zm-2.82-9.11c-1.63-.46-2.06-.91-2.06-1.7v-.06c0-.79.58-1.39,2.06-1.51Zm-.21,16.49h3.15v-3c4.3-.4,7.14-2.67,7.14-6.35v-.06c0-3.75-2.42-5.47-7.23-6.59V99.35a12.23,12.23,0,0,1,4.05,1.82l2.48-4a13.42,13.42,0,0,0-6.38-2.39V92.91H23.14v1.76c-4.63.33-7.23,2.81-7.23,6.37v.07c0,3.74,2.48,5.41,7.35,6.52v3.63a13.47,13.47,0,0,1-5.63-2.48l-2.72,4a17.33,17.33,0,0,0,8.17,3Zm84.55-88.39V27.11c1.57.45,2,.9,2,1.72v.06C109.66,29.77,109,30.28,107.63,30.43Zm-2.81-9.11c-1.64-.45-2.06-.9-2.06-1.69v-.06c0-.79.57-1.39,2.06-1.52Zm-.22,16.5h3.15v-3c4.3-.39,7.14-2.66,7.14-6.34v-.06c0-3.75-2.42-5.48-7.23-6.59V18.35a12.46,12.46,0,0,1,4.06,1.81l2.48-4a13.49,13.49,0,0,0-6.39-2.39V11.91h-3.15v1.76C100,14,97.43,16.48,97.43,20v.06c0,3.75,2.48,5.42,7.35,6.53v3.63a13.52,13.52,0,0,1-5.63-2.48l-2.72,4a17.25,17.25,0,0,0,8.17,3Zm1.31,4.91a18.1,18.1,0,0,0,18-17.88h0v-.08h0A18.16,18.16,0,0,0,118.66,12,17.79,17.79,0,0,0,106,6.66H106a18,18,0,0,0-18.12,18h0v0h0a18.06,18.06,0,0,0,18,18h0Z"/></g></g></svg>