<svg xmlns="http://www.w3.org/2000/svg" viewBox="0 0 112.54 69.51"><defs><style>.cls-1{fill:#fff;fill-rule:evenodd;}</style></defs><title>logo-reducido</title><g id="Capa_2" data-name="Capa 2"><g id="Capa_1-2" data-name="Capa 1"><path class="cls-1" d="M93.74,21.26c3.83-1.63,12.75-4.71,17.77-2.51-5.66-1-12.17,1.27-18.05,3.37a3.93,3.93,0,0,0,.28-.86M96.57,25c3.46-.79,10.76-2.16,15.21,0-4.7-1.31-9.25-.53-14.13.78A2,2,0,0,0,96.57,25Zm2.58,2.15c2.33-.27,7.13-.59,9.68,1.42-2.83-1.42-5.83-1.27-9.1-.75A2.07,2.07,0,0,0,99.15,27.12ZM93.44,15.57c2.09-.91,6.67-2.88,7.8-6.17-1.72,2.63-5,4.37-8.11,5.57A1.9,1.9,0,0,1,93.44,15.57ZM81.21,29c-2-4.06-1.37-8.91,3.33-10.93C86.61,21.05,87,26,81.21,29Zm1.18,3.82c3.11,2.66,7.49,3.14,10.28-.54C90.52,29.84,86.3,28.4,82.39,32.83Zm-7.77,1.39c-2.48-4.25-2.09-9.54,2.85-12C79.91,25.25,80.69,30.55,74.62,34.22Zm1.5,3.3c3.3,3,8,3.6,11.16-.3C85,34.5,80.48,32.83,76.12,37.52Zm-7.53,1.71c-2.47-3.91-2.29-8.89,2.27-11.42C73.25,30.61,74.18,35.57,68.59,39.23Zm2,2.48c2.76,2.58,6.78,3.21,9.51-.05C78.18,39.3,74.35,37.79,70.55,41.71ZM87.58,25c-1.54-4.05-.45-8.59,4.2-10.06C93.46,17.92,93.39,22.64,87.58,25Zm1.28,3.19c2.67,2.75,6.71,3.57,9.62.39C96.69,26.07,92.88,24.37,88.86,28.15ZM66.51,12.9C69.88,6.79,72,4.54,75.34,5.21S77.25,11.53,66.51,12.9Zm-13,39.75c1.61-.94,3.18-1.93,4.7-2.95a13.66,13.66,0,0,0,1.92,2l.28,0M75,61.66l-4.92-1,3.1-4.48a29.73,29.73,0,0,1-7.57,3.08,11.44,11.44,0,0,1-1.79.24l.1,1.23,0,.28,0,.25-.51.13a33.17,33.17,0,0,0-6.6,2.23A5.7,5.7,0,0,0,54,66.31a27,27,0,0,0,10-.61A45.47,45.47,0,0,0,75,61.66ZM53.05,63.17l.4,2.71A6.46,6.46,0,0,1,56.51,63a16.78,16.78,0,0,1,1.68-.75c-1.72.33-3,.54-4.28.74ZM30.13,55.38a6.51,6.51,0,0,1-3.06,2.84,25.48,25.48,0,0,1-4.55,1.68,61.16,61.16,0,0,0,8-1.7ZM63,51.48h.09l0,.35c0,.54.1,1.15.15,1.79l-.18-2.14Zm-9.5,1.17c2.27-.39,4.58-.72,6.9-.95h0l.46-.05h0l.28,0h.09M15.13,56.07a42.78,42.78,0,0,1,4.26-1.19,26.79,26.79,0,0,1,10.72-.54l.39.07.19,0,0,.15L31.23,58l3.49-.94c4.61-1.25,9.87-2.67,15.41-3.79a85.54,85.54,0,0,0,7.44-4.54c-5.83-9-5-19.29-1-30-7.68-1.54-7.89-6.49-5.27-11a42.88,42.88,0,0,0-8.06,12.77c-2.81,6.47-3.18,28.8,6,25.64l-3.81,6.22c-.35.57-.61,1.47-1.81,1.56-11.89.88-10.67-25.18-7.81-30C32.11,29.9,30,35,29.71,42l-6.37,2.31C21.53,39.63,20.91,29.59,21.67,25,16.59,32.79,15,50.09,15.13,56.07Zm-7.06,3,.33-.18Zm-.32.17.32-.17Zm12,3.15a10.64,10.64,0,0,0-1.62.22,32.68,32.68,0,0,0-8.66,3.7l-1.3.73,4.17-6L6.81,60l-.16,0h0l0,0C6.69,43.77,13.47,24.27,26.89,7,13.46,6.34,4.33,24.86,9.66,29.65L2.91,38.14C.81,40.75-11.61,6,37.94.69,37.69,2,28,11.65,28.27,24,34.05,14.61,48.11,2.36,59.18.46l.36-.05C57.27,1.93,54.59,6.35,55,9.09c.31,2.38,2.5,3.54,4.77,3.61C65.94,1.26,72.12.17,75.55,0c13-.6,7,17.63-11.19,19.22-4.6,12.32-3.76,20.37-.74,25.13,1.5-1.15,3-2.3,4.38-3.42,8.1-6.41,16.39-14.24,26.25-17.76a34.17,34.17,0,0,1,9.33-2,26,26,0,0,1,9,1.14c-7.17-.92-11.14-1-18,1.61-10.65,4.13-19.63,13.2-30.28,21.36,5.14,6.68,15,5.59,17.42.36.23,1.75-1.54,5.75-5.27,8a14.08,14.08,0,0,1-13.13.15h0l.2,2.44.22,2.61a11.61,11.61,0,0,0,1.71-.22,33.09,33.09,0,0,0,8.66-3.71l1.3-.72-4.17,6L77,61.34l-.82.46a45.14,45.14,0,0,1-12,4.58,27,27,0,0,1-10.72.54l-.39-.08-.19,0,0-.14-.5-3.38A110.13,110.13,0,0,0,37.74,67a56.58,56.58,0,0,1-7.92,1.72,71.61,71.61,0,0,1-8.84.77h-.34l0-.33c-.07-1.24-.3-2.83-.53-4.42C20,64,19.86,63.17,19.76,62.42ZM8.61,59.6l4.92,1L10.44,65A29.11,29.11,0,0,1,18,62a12.82,12.82,0,0,1,1.68-.24c-.06-.5-.1-1-.13-1.43V60l.3-.08.32-.08a34.2,34.2,0,0,0,6.61-2.23A5.76,5.76,0,0,0,29.56,55a26.8,26.8,0,0,0-10,.61A44.79,44.79,0,0,0,8.61,59.6Zm11.67,1.06c.09,1.17.3,2.59.5,4s.42,2.92.52,4.13a72.48,72.48,0,0,0,8.41-.75,54.28,54.28,0,0,0,7.82-1.7c9.81-3,12.61-3.42,16.28-4,2.21-.35,4.74-.76,9.36-1.81l-.7-8.31c-9.84.73-19.66,3.39-27.57,5.53C28.46,59.5,23.27,60.9,20.28,60.66Zm37.55-3.52a1.79,1.79,0,0,0,.7-.47.79.79,0,0,0,.19-.62.52.52,0,0,0-.23-.42.78.78,0,0,0-.54-.12,1,1,0,0,0-.63.32.77.77,0,0,0-.22.63.59.59,0,0,0,.21.43A1.1,1.1,0,0,0,57.83,57.14Zm.67.21a1.71,1.71,0,0,1,.72.43,1.21,1.21,0,0,1,.3.68,1.66,1.66,0,0,1-.44,1.3,1.87,1.87,0,0,1-1.29.64,1.61,1.61,0,0,1-1.15-.28,1.33,1.33,0,0,1-.52-1,1.51,1.51,0,0,1,.2-1,2,2,0,0,1,.79-.73,1.47,1.47,0,0,1-.5-.4,1,1,0,0,1-.2-.55,1.25,1.25,0,0,1,.4-1,1.9,1.9,0,0,1,1.2-.53,1.41,1.41,0,0,1,1,.21,1,1,0,0,1,.42.76,1.14,1.14,0,0,1-.19.78A2.22,2.22,0,0,1,58.5,57.35Zm-.78.35a1.5,1.5,0,0,0-.69.56,1.22,1.22,0,0,0-.2.79.87.87,0,0,0,.3.6.84.84,0,0,0,.65.17,1.15,1.15,0,0,0,.78-.4,1.06,1.06,0,0,0,.25-.82.83.83,0,0,0-.3-.59A1.6,1.6,0,0,0,57.72,57.7Zm-4.23,0a1.66,1.66,0,0,0,.67-.5.83.83,0,0,0,.16-.64.53.53,0,0,0-.26-.4.73.73,0,0,0-.54-.08.87.87,0,0,0-.61.35.78.78,0,0,0-.19.64.69.69,0,0,0,.24.42A1,1,0,0,0,53.49,57.69Zm.68.18a1.43,1.43,0,0,1,.74.39,1.11,1.11,0,0,1,.34.66,1.61,1.61,0,0,1-.36,1.32,1.91,1.91,0,0,1-1.26.71,1.56,1.56,0,0,1-1.16-.22,1.28,1.28,0,0,1-.57-.93,1.47,1.47,0,0,1,.15-1,2.1,2.1,0,0,1,.74-.78,1.36,1.36,0,0,1-.52-.37,1.11,1.11,0,0,1-.24-.54,1.29,1.29,0,0,1,.35-1.06,1.86,1.86,0,0,1,1.16-.59,1.44,1.44,0,0,1,1,.15,1,1,0,0,1,.47.74,1.16,1.16,0,0,1-.15.79A2.24,2.24,0,0,1,54.17,57.87Zm-.75.39a1.64,1.64,0,0,0-.67.6,1.17,1.17,0,0,0-.14.8.85.85,0,0,0,.33.58.91.91,0,0,0,.66.14,1.14,1.14,0,0,0,.75-.45,1.07,1.07,0,0,0,.21-.83.87.87,0,0,0-.34-.58A1.58,1.58,0,0,0,53.42,58.26Zm-4.23.18a1.62,1.62,0,0,0,.65-.53.78.78,0,0,0,.13-.64.51.51,0,0,0-.27-.39.72.72,0,0,0-.55-.06.93.93,0,0,0-.6.38.76.76,0,0,0-.15.64.65.65,0,0,0,.25.41A1,1,0,0,0,49.19,58.44Zm.69.15a1.58,1.58,0,0,1,.76.35,1.13,1.13,0,0,1,.37.65,1.68,1.68,0,0,1-.3,1.33,1.92,1.92,0,0,1-1.23.77,1.58,1.58,0,0,1-1.17-.16,1.31,1.31,0,0,1-.61-.91,1.56,1.56,0,0,1,.1-1,2.15,2.15,0,0,1,.71-.81,1.47,1.47,0,0,1-.54-.34,1.09,1.09,0,0,1-.25-.53A1.23,1.23,0,0,1,48,56.89a1.87,1.87,0,0,1,1.14-.65,1.41,1.41,0,0,1,1,.11,1,1,0,0,1,.51.71,1.23,1.23,0,0,1-.12.8A2.08,2.08,0,0,1,49.88,58.59Zm-.73.42a1.52,1.52,0,0,0-.64.64,1.16,1.16,0,0,0-.11.8.84.84,0,0,0,.35.56.89.89,0,0,0,.67.11,1.11,1.11,0,0,0,.73-.48,1,1,0,0,0,.17-.84.83.83,0,0,0-.36-.56A1.65,1.65,0,0,0,49.15,59Zm-3.43-1.92.37,5.15a.35.35,0,0,1,0,.2.27.27,0,0,1-.16.08l-.65.15a1.41,1.41,0,0,0,.09-.39c0-.16,0-.37,0-.62l-.26-3.57q0-.15,0-.24a.59.59,0,0,0,0-.14l0-.13a.75.75,0,0,0-.07-.12Zm-6.54,4.84a2,2,0,0,0,1-.59.82.82,0,0,0,.25-.75.34.34,0,0,0-.15-.21.37.37,0,0,0-.26,0,1,1,0,0,0-.57.54A2.23,2.23,0,0,0,39.18,61.93Zm0,.47a.07.07,0,0,1,0,.05,1.6,1.6,0,0,0,0,.25,1.08,1.08,0,0,0,.39.62.67.67,0,0,0,.62.09,1.11,1.11,0,0,0,.49-.26,2.2,2.2,0,0,0,.42-.51l0,.37a.77.77,0,0,1-.23.62,1.51,1.51,0,0,1-.75.41,1.16,1.16,0,0,1-1-.14,1.66,1.66,0,0,1-.63-1,3.06,3.06,0,0,1-.09-1,3,3,0,0,1,.26-1,2.21,2.21,0,0,1,.5-.66,1.65,1.65,0,0,1,.67-.37.92.92,0,0,1,.66,0,.65.65,0,0,1,.37.44,1.29,1.29,0,0,1-.3,1.23A2.85,2.85,0,0,1,39.22,62.4Zm-2.14-3.89.42,4.2c0,.18,0,.34,0,.47s0,.24.06.33a.92.92,0,0,0,.27.49.5.5,0,0,0,.44.07l0,.21a.32.32,0,0,1-.08.21.47.47,0,0,1-.21.11.63.63,0,0,1-.53-.09,1.09,1.09,0,0,1-.39-.51,1.69,1.69,0,0,1-.39.74,1.39,1.39,0,0,1-.66.39,1.14,1.14,0,0,1-1-.15A1.59,1.59,0,0,1,34.5,64a3.27,3.27,0,0,1-.09-1,3,3,0,0,1,.22-1,2.17,2.17,0,0,1,.49-.75,1.83,1.83,0,0,1,.72-.4,1.21,1.21,0,0,1,.42,0,.89.89,0,0,1,.38.15l-.16-1.66a1.1,1.1,0,0,1,0-.18q0-.09,0-.15l-.06-.15s0,0,0,0Zm-.41,3.41a.62.62,0,0,0-.26-.39.56.56,0,0,0-.45-.05.93.93,0,0,0-.38.24,1.39,1.39,0,0,0-.29.47,2.66,2.66,0,0,0-.18.81,2.93,2.93,0,0,0,.08.84,1.21,1.21,0,0,0,.32.6.53.53,0,0,0,.5.11.73.73,0,0,0,.39-.27,1.37,1.37,0,0,0,.27-.54,3.28,3.28,0,0,0,.11-.89A3.83,3.83,0,0,0,36.67,61.92Zm-3.09.25-.08.34a1.16,1.16,0,0,0-.43-.18,1.19,1.19,0,0,0-.46,0,.65.65,0,0,0-.36.22.5.5,0,0,0-.06.38c.05.18.29.39.74.65l.19.11a1.86,1.86,0,0,1,.45.37,1.2,1.2,0,0,1,.23.45,1.06,1.06,0,0,1-.2.92,1.72,1.72,0,0,1-1,.58,1.66,1.66,0,0,1-.72,0c-.2,0-.32-.12-.35-.25a.28.28,0,0,1,0-.08.09.09,0,0,1,0,0v-.32a1.34,1.34,0,0,0,.48.15,1.53,1.53,0,0,0,.52,0,.88.88,0,0,0,.49-.29.56.56,0,0,0,.09-.47.63.63,0,0,0-.17-.31,2.38,2.38,0,0,0-.41-.31l-.18-.1a1.63,1.63,0,0,1-.82-.85,1,1,0,0,1,.18-.83,1.4,1.4,0,0,1,.84-.52,1.64,1.64,0,0,1,.69,0c.2,0,.31.12.34.24a.19.19,0,0,1,0,.08A.25.25,0,0,1,33.58,62.17Zm-4.66,2.32a2.08,2.08,0,0,0,1-.56.84.84,0,0,0,.27-.74A.33.33,0,0,0,30,63a.38.38,0,0,0-.26,0,1,1,0,0,0-.59.51A2.41,2.41,0,0,0,28.92,64.49ZM29,65v0c0,.12,0,.21,0,.26a1,1,0,0,0,.37.62A.7.7,0,0,0,30,66a1.09,1.09,0,0,0,.49-.25,2,2,0,0,0,.44-.5l0,.37a.78.78,0,0,1-.25.62,1.61,1.61,0,0,1-.76.39,1.2,1.2,0,0,1-1-.18,1.71,1.71,0,0,1-.59-1,3.06,3.06,0,0,1-.06-1,2.93,2.93,0,0,1,.29-1,2.23,2.23,0,0,1,.52-.65,1.74,1.74,0,0,1,.69-.35.9.9,0,0,1,.65.06.68.68,0,0,1,.36.45,1.3,1.3,0,0,1-.34,1.21A3,3,0,0,1,29,65Zm-1.85-4,.14,4.21c0,.19,0,.35,0,.48s0,.24,0,.33a.9.9,0,0,0,.24.5.46.46,0,0,0,.43.1l0,.22a.35.35,0,0,1-.1.19.42.42,0,0,1-.22.11.67.67,0,0,1-.52-.13,1.09,1.09,0,0,1-.36-.53,1.74,1.74,0,0,1-.43.71,1.33,1.33,0,0,1-.69.34,1.06,1.06,0,0,1-.94-.21,1.53,1.53,0,0,1-.53-1,3,3,0,0,1,0-1,3.11,3.11,0,0,1,.28-1,2.13,2.13,0,0,1,.54-.72,1.59,1.59,0,0,1,.74-.35,1,1,0,0,1,.42,0,.85.85,0,0,1,.37.18l-.05-1.67c0-.07,0-.13,0-.19a.59.59,0,0,0,0-.14.9.9,0,0,0,0-.16s0,0,0,0Zm-.63,3.37a.66.66,0,0,0-.23-.4.61.61,0,0,0-.45-.08.84.84,0,0,0-.4.22,1.47,1.47,0,0,0-.32.44,3,3,0,0,0-.23.8,3,3,0,0,0,0,.85,1.16,1.16,0,0,0,.28.62.53.53,0,0,0,.49.13.76.76,0,0,0,.41-.24,1.52,1.52,0,0,0,.3-.52,3,3,0,0,0,.17-.88A4.08,4.08,0,0,0,26.48,64.35ZM94.13,17.8a54.91,54.91,0,0,0,7.47-2.48c1.69-.7,3.35-1.3,5-2.18-3.42,2.8-8.44,4.28-12.59,5.51A2,2,0,0,0,94.13,17.8Z"/></g></g></svg>